{"title":"Toy Story 3 3D (2010)","uid":6862948,"size":11881014271,"categoryP":"video","categoryS":"3d","magnet":"?xt=urn:btih:3251ae3799abb75668009a225c8229c21b59f088&amp;dn=Toy+Story+3+3D+%282010%29&amp;tr=udp%3A%2F%2Ftracker.openbittorrent.com%3A80&amp;tr=udp%3A%2F%2Fopen.demonii.com%3A1337&amp;tr=udp%3A%2F%2Ftracker.coppersurfer.tk%3A6969&amp;tr=udp%3A%2F%2Fexodus.desync.com%3A6969","seeders":5,"leechers":1,"uploader":"Beebe85","files":-1,"time":1322976612,"description":"Toy Story 3 3D (2010) Bluray3Drip  3DTV Active Shutter (side by side)\n\n\n &lt;a href=&quot;\nhttp://www.imdb.com/title/tt0435761/&quot; rel=&quot;nofollow&quot; target=&quot;_NEW&quot;&gt;\nhttp://www.imdb.com/title/tt0435761/&lt;/a&gt;\n\n\nFormat                           : Matroska\nFormat version                   : Version 2\nFile size                        : 11.1 GiB\nDuration                         : 1h 42mn\nOverall bit rate                 : 15.5 Mbps\nMovie name                       : TOYSTORY3_3D.Title800.Bluray3DRip\nEncoded date                     : UTC 2011-12-04 02:50:32\nWriting application              : DVDFab\nWriting library                  : libebml v0.7.8 + libmatroska v0.8.1\n\nVideo\nID                               : 1\nFormat                           : AVC\nFormat/Info                      : Advanced Video Codec\nFormat profile                   : &lt;a class=&quot;__cf_email__&quot; href=&quot;/cdn-cgi/l/email-protection&quot; data-cfemail=&quot;2c64454b446c6019021d&quot;&gt;[email&amp;#160;protected]&lt;/a&gt;&lt;script cf-hash='f9e31' type=&quot;text/javascript&quot;&gt;\n/* &lt;![CDATA[ */!function(){try{var t=&quot;currentScript&quot;in document?document.currentScript:function(){for(var t=document.getElementsByTagName(&quot;script&quot;),e=t.length;e--;)if(t[e].getAttribute(&quot;cf-hash&quot;))return t[e]}();if(t&amp;&amp;t.previousSibling){var e,r,n,i,c=t.previousSibling,a=c.getAttribute(&quot;data-cfemail&quot;);if(a){for(e=&quot;&quot;,r=parseInt(a.substr(0,2),16),n=2;a.length-n;n+=2)i=parseInt(a.substr(n,2),16)^r,e+=String.fromCharCode(i);e=document.createTextNode(e),c.parentNode.replaceChild(e,c)}}}catch(u){}}();/* ]]&gt; */&lt;/script&gt;\nFormat settings, CABAC           : Yes\nFormat settings, ReFrames        : 2 frames\nFormat settings, GOP             : M=3, N=15\nCodec ID                         : V_MPEG4/ISO/AVC\nDuration                         : 1h 42mn\nBit rate mode                    : Variable\nBit rate                         : 14.7 Mbps\nMaximum bit rate                 : 22.5 Mbps\nWidth                            : 1 920 pixels\nHeight                           : 1 080 pixels\nDisplay aspect ratio             : 16:9\nFrame rate                       : 23.976 fps\nColor space                      : YUV\nChroma subsampling               : 4:2:0\nBit depth                        : 8 bits\nScan type                        : Progressive\nBits/(Pixel*Frame)               : 0.296\nStream size                      : 10.5 GiB (95%)\n\nAudio\nID                               : 2\nFormat                           : AC-3\nFormat/Info                      : Audio Coding 3\nMode extension                   : CM (complete main)\nCodec ID                         : A_AC3\nDuration                         : 1h 42mn\nBit rate mode                    : Constant\nBit rate                         : 448 Kbps\nChannel(s)                       : 6 channels\nChannel positions                : Front: L C R, Side: L R, LFE\nSampling rate                    : 48.0 KHz\nBit depth                        : 16 bits\nCompression mode                 : Lossy\nStream size                      : 328 MiB (3%)","torrent":{"xt":"urn:btih:3251ae3799abb75668009a225c8229c21b59f088","amp;dn":"Toy+Story+3+3D+%282010%29","amp;tr":["udp%3A%2F%2Ftracker.openbittorrent.com%3A80","udp%3A%2F%2Fopen.demonii.com%3A1337","udp%3A%2F%2Ftracker.coppersurfer.tk%3A6969","udp%3A%2F%2Fexodus.desync.com%3A6969"],"infoHash":"3251ae3799abb75668009a225c8229c21b59f088","infoHashBuffer":{"type":"Buffer","data":[50,81,174,55,153,171,183,86,104,0,154,34,92,130,41,194,27,89,240,136]},"announce":[],"urlList":[]}}